<mxfile host="app.diagrams.net" modified="2024-07-17T20:38:24.991Z" agent="Mozilla/5.0 (Macintosh; Intel Mac OS X 10_15_7) AppleWebKit/537.36 (KHTML, like Gecko) Chrome/126.0.0.0 Safari/537.36" version="24.6.4" etag="p60vOZtyOg9n-HsWKprJ" type="github">
  <diagram name="Page-1" id="yaQGTd5kY5I2iLCVzqm-">
    <mxGraphModel>
      <root>
        <mxCell id="0" />
        <mxCell id="1" parent="0" />
      </root>
    </mxGraphModel>
  </diagram>
</mxfile>
